<svg width="24" height="24" viewBox="0 0 24 24" fill="none" xmlns="http://www.w3.org/2000/svg">
<path d="M12 2C17.5228 2 22 6.47713 22 12C22 17.5228 17.5228 22 12 22C6.47713 22 2 17.5228 2 12C2 6.47713 6.47713 2 12 2ZM8.61814 13H4.06194C4.55403 16.9463 7.92036 20 12 20C16.0796 20 19.4459 16.9463 19.938 13H16.6182L14 18.2363L9.99997 10.2363L8.61814 13ZM12 3.99997C7.92036 3.99997 4.55403 7.05369 4.06194 11H7.38181L9.99997 5.76364L14 13.7637L15.3818 11H19.938C19.4459 7.05369 16.0796 3.99997 12 3.99997Z" fill="white"/>
</svg>
